Coordinates
version=1
nRows=6
nColumns=46
inDegrees=yes

Units are S.I. units (second, meters, Newtons, ...)
Angles are in degrees.

endheader
time	pelvis_tilt	pelvis_list	pelvis_rotation	pelvis_tx	pelvis_ty	pelvis_tz	bb_angle	bb_tx	bb_ty	bb_tz	hip_flexion_r	hip_adduction_r	hip_rotation_r	knee_angle_r	knee_angle_r_beta	ankle_angle_r	subtalar_angle_r	mtp_angle_r	crank_angle_r	hip_flexion_l	hip_adduction_l	hip_rotation_l	knee_angle_l	knee_angle_l_beta	ankle_angle_l	subtalar_angle_l	mtp_angle_l	crank_angle_l	lumbar_extension	lumbar_bending	lumbar_rotation	arm_flex_r	arm_add_r	arm_rot_r	elbow_flex_r	pro_sup_r	wrist_flex_r	wrist_dev_r	arm_flex_l	arm_add_l	arm_rot_l	elbow_flex_l	pro_sup_l	wrist_flex_l	wrist_dev_l
      0.00000000	    -29.82641224	    -33.38312825	     -1.88009510	      0.12671773	      1.00859144	     -0.27514962	      0.00000000	      0.50000000	      0.00000000	      0.25000000	     65.11347380	     19.45141429	    -24.88471539	     60.80266282	      1.06120666	     12.36005195	    -16.60343248	      0.00000000	      0.00000000	    119.98556066	      0.46831187	     39.96419846	    112.53411198	      1.96409077	     25.97676703	      6.22361420	      0.00000000	      0.00000000	    -31.97565080	     32.93908419	     14.60675459	     82.49161053	    -12.90302086	     62.72265718	     37.22281220	     48.66588417	      0.00000000	      0.00000000	     75.45919094	    -23.02330432	     54.68716130	     40.53913968	     54.06233555	      0.00000000	      0.00000000
      0.00500000	    -29.82621724	    -33.39393138	     -1.88940205	      0.12668147	      1.00858643	     -0.27515623	      0.00000000	      0.50000000	      0.00000000	      0.25000000	     65.12514211	     19.46070729	    -24.88929061	     60.82147816	      1.06153505	     12.36126385	    -16.60308857	      0.00000000	      0.00000000	    119.98554913	      0.46106291	     39.96422414	    112.52129241	      1.96386703	     25.97323696	      6.22353742	      0.00000000	      0.00000000	    -31.97703710	     32.94009650	     14.61482893	     82.49016618	    -12.90287925	     62.72125767	     37.22254066	     48.66617433	      0.00000000	      0.00000000	     75.46190359	    -23.03063544	     54.68315713	     40.53581555	     54.06192457	      0.00000000	      0.00000000
      0.01000000	    -29.84156408	    -33.39202051	     -1.90324376	      0.12664702	      1.00855961	     -0.27516993	      0.00000000	      0.50000000	      0.00000000	      0.25000000	     65.14232412	     19.45284610	    -24.89003446	     60.85861113	      1.06218314	     12.35851923	    -16.60304091	      0.00000000	      0.00000000	    119.98558459	      0.46205688	     39.96425813	    112.48864930	      1.96329730	     25.97247838	      6.21842027	      0.00000000	      0.00000000	    -31.96201549	     32.94641848	     14.64253961	     82.48807646	    -12.90284527	     62.71907710	     37.22166966	     48.66661711	      0.00000000	      0.00000000	     75.46235151	    -23.04899448	     54.67456625	     40.52848408	     54.06085623	      0.00000000	      0.00000000
      0.01500000	    -29.83649869	    -33.39580449	     -1.89618111	      0.12661810	      1.00852216	     -0.27513930	      0.00000000	      0.50000000	      0.00000000	      0.25000000	     65.19431467	     19.45520875	    -24.89400598	     60.92847398	      1.06340248	     12.34309729	    -16.61762998	      0.00000000	      0.00000000	    119.98558284	      0.45943595	     39.96423214	    112.46785685	      1.96293440	     25.97146267	      6.21592387	      0.00000000	      0.00000000	    -31.97140864	     32.96184049	     14.67327065	     82.46796617	    -12.88996864	     62.72687330	     37.22310308	     48.66905624	      0.00000000	      0.00000000	     75.45195038	    -23.05674781	     54.66799898	     40.52225219	     54.06050718	      0.00000000	      0.00000000
      0.02000000	    -29.82995733	    -33.41664246	     -1.90089487	      0.12654216	      1.00850405	     -0.27512491	      0.00000000	      0.50000000	      0.00000000	      0.25000000	     65.21551682	     19.47852339	    -24.89412233	     60.95553737	      1.06387482	     12.33126004	    -16.61464786	      0.00000000	      0.00000000	    119.98554575	      0.46206334	     39.96427271	    112.46088282	      1.96281268	     25.97317544	      6.20696845	      0.00000000	      0.00000000	    -31.98266565	     32.95660767	     14.65922502	     82.47085245	    -12.89310110	     62.72615829	     37.22213318	     48.66929494	      0.00000000	      0.00000000	     75.44045186	    -23.04940912	     54.66810288	     40.52205085	     54.06118848	      0.00000000	      0.00000000
      0.02500000	    -29.83072839	    -33.41935110	     -1.90642150	      0.12651971	      1.00848797	     -0.27514287	      0.00000000	      0.50000000	      0.00000000	      0.25000000	     65.22848137	     19.47913536	    -24.89785746	     60.98223794	      1.06434084	     12.32353802	    -16.61663433	      0.00000000	      0.00000000	    119.98553476	      0.45866884	     39.96426207	    112.44689985	      1.96256864	     25.96470185	      6.20493238	      0.00000000	      0.00000000	    -31.97454930	     32.95715737	     14.66731979	     82.47140105	    -12.89716955	     62.72570141	     37.22071229	     48.66957000	      0.00000000	      0.00000000	     75.43505680	    -23.05836854	     54.66071351	     40.51762607	     54.06022050	      0.00000000	      0.00000000
